<svg width="28" height="28" viewBox="0 0 28 28" fill="none" xmlns="http://www.w3.org/2000/svg">
<g id="social-icon">
<path id="Vector" fill-rule="evenodd" clip-rule="evenodd" d="M14 28C21.7319 28 28 21.7319 28 14C28 6.26802 21.7319 0 14 0C6.26802 0 0 6.26802 0 14C0 21.7319 6.26802 28 14 28ZM5.274 21.4074C3.57762 19.411 2.55415 16.8251 2.55415 14V13.9972C7.14391 13.9514 10.9145 13.343 14.3083 12.1901C14.5941 12.8043 14.8714 13.4316 15.1399 14.0718C14.707 14.2152 14.2813 14.3753 13.8623 14.5517C10.4895 15.9713 7.64321 18.4052 5.274 21.4074ZM7.13509 23.1594C9.04761 24.5952 11.4245 25.4459 14 25.4459C15.5512 25.4459 17.0302 25.1373 18.3793 24.5781C17.7759 21.6832 16.9935 18.9725 16.0701 16.4458C15.6549 16.5791 15.2482 16.7301 14.8498 16.8977C11.9076 18.1362 9.33982 20.319 7.13509 23.1594ZM18.5721 15.8792C19.4064 18.2024 20.1255 20.669 20.7035 23.2784C22.9702 21.638 24.612 19.1873 25.2041 16.3511C22.8 15.7295 20.5954 15.6041 18.5721 15.8792ZM17.6368 13.4479C20.0505 13.0343 22.654 13.1176 25.444 13.7877C25.4008 11.4216 24.6399 9.23098 23.3697 7.42433C21.1728 8.97667 18.9988 10.2603 16.6869 11.2687C17.0147 11.979 17.3316 12.7055 17.6368 13.4479ZM13.1673 9.88713C10.1784 10.8618 6.8606 11.3841 2.83971 11.4479C3.6365 7.94901 6.03647 5.05992 9.22608 3.59419C10.6265 5.48879 11.9551 7.58627 13.1673 9.88713ZM15.5657 8.98066C17.6751 8.07102 19.6593 6.91204 21.6723 5.50612C19.6424 3.67142 16.9517 2.55415 14 2.55415C13.2381 2.55415 12.4937 2.62858 11.7735 2.77057C13.1222 4.66247 14.3982 6.73262 15.5657 8.98066Z" fill="#727072"/>
</g>
</svg>
