<svg width="30" height="28" viewBox="0 0 30 28" fill="none" xmlns="http://www.w3.org/2000/svg">
<g id="SVGRepo_iconCarrier">
<path id="Vector" d="M15.2435 0.00299874C15.2725 0.00299874 15.3074 0.00199912 15.3424 0.00199912C18.59 0.00199912 21.3838 1.94117 22.6303 4.72497L22.6503 4.77595C22.9832 5.95545 23.1741 7.30887 23.1741 8.70827C23.1741 9.45695 23.1191 10.1926 23.0131 10.9123L23.0231 10.8304L23.0191 10.9053C23.0041 11.1302 22.9921 11.3361 22.9822 11.5421C23.1141 11.614 23.271 11.656 23.438 11.656C23.4539 11.656 23.4699 11.656 23.4859 11.655H23.4839C23.9617 11.61 24.3995 11.4761 24.7934 11.2702L24.7744 11.2792C24.9363 11.1972 25.1262 11.1492 25.3281 11.1492C25.3371 11.1492 25.3461 11.1492 25.3551 11.1492C25.3631 11.1492 25.3711 11.1492 25.3801 11.1492C25.599 11.1492 25.8089 11.1902 26.0019 11.2662L25.9899 11.2622C26.4856 11.3791 26.8575 11.7939 26.9065 12.3037V12.3087C26.9251 12.8698 26.42 13.3563 25.3911 13.7681C25.2802 13.8041 25.1302 13.8621 24.9613 13.917C24.3995 14.086 23.5389 14.3668 23.296 14.9286C23.26 15.0426 23.24 15.1725 23.24 15.3084C23.24 15.5703 23.317 15.8142 23.449 16.0181L23.446 16.0131L23.4649 16.0321C24.5815 18.5241 26.7495 20.3743 29.3884 21.033L29.4494 21.046C29.7483 21.095 29.9742 21.3518 29.9742 21.6617C29.9742 21.6687 29.9742 21.6757 29.9742 21.6827C29.9732 21.7847 29.9532 21.8796 29.9162 21.9676L29.9182 21.9626C29.6183 22.6733 28.3279 23.1971 25.9889 23.5499C25.9019 23.7538 25.8309 23.9937 25.7869 24.2416L25.784 24.2616C25.738 24.5295 25.68 24.7624 25.607 24.9883L25.617 24.9523C25.5481 25.2452 25.2882 25.4601 24.9793 25.4601C24.9603 25.4601 24.9403 25.4591 24.9213 25.4571H24.9233H24.8863C24.6404 25.4441 24.4105 25.4111 24.1876 25.3591L24.2146 25.3641C23.7378 25.2572 23.1911 25.1952 22.6293 25.1952C22.6273 25.1952 22.6263 25.1952 22.6243 25.1952C22.6003 25.1952 22.5713 25.1942 22.5423 25.1942C22.1685 25.1942 21.8027 25.2282 21.4468 25.2932L21.4838 25.2872C20.6541 25.5091 19.9335 25.8899 19.3227 26.3987L19.3317 26.3917C18.2242 27.3353 16.7968 27.932 15.2315 28H15.2175C15.1425 28 15.0685 27.981 14.9926 27.981H14.8067C13.2323 27.921 11.8079 27.3223 10.7024 26.3647L10.7104 26.3717C10.1147 25.8709 9.39997 25.4901 8.61731 25.2762L8.57832 25.2672C8.23247 25.2122 7.83164 25.1782 7.42282 25.1752H7.41882C6.85106 25.1832 6.3043 25.2512 5.77752 25.3711L5.8305 25.3611C5.63159 25.4101 5.40069 25.4431 5.16379 25.4531H5.15679C5.1408 25.4541 5.1228 25.4551 5.10481 25.4551C4.77995 25.4551 4.50807 25.2332 4.4301 24.9333L4.4291 24.9283C4.35313 24.6884 4.31715 24.4425 4.26017 24.2196C4.21319 23.9507 4.14123 23.7118 4.04427 23.4859L4.05226 23.5079C1.65629 23.231 0.367842 22.7063 0.0689704 21.9766C0.0299872 21.8946 0.00499786 21.7987 0 21.6977V21.6957C0 21.6887 0 21.6807 0 21.6727C0 21.3638 0.225903 21.108 0.521776 21.061H0.525775C3.22762 20.3873 5.39669 18.5351 6.48822 16.0951L6.51021 16.0391L6.5302 16.0031C6.66314 15.8082 6.74211 15.5673 6.74211 15.3084C6.74211 15.1685 6.71912 15.0346 6.67714 14.9086L6.68014 14.9176C6.43624 14.3758 5.57561 14.096 5.01585 13.907C4.84792 13.8641 4.70398 13.8131 4.56604 13.7511L4.58404 13.7581C3.20163 13.2143 3.01371 12.5966 3.08868 12.1678C3.29559 11.585 3.84135 11.1762 4.48308 11.1762C4.50607 11.1762 4.52806 11.1772 4.55105 11.1782H4.54805C4.54905 11.1782 4.54905 11.1782 4.55105 11.1782C4.72198 11.1782 4.88591 11.2122 5.03484 11.2742L5.02685 11.2712C5.42767 11.4821 5.89747 11.617 6.39726 11.645H6.40625C6.41825 11.645 6.43124 11.646 6.44524 11.646C6.64315 11.646 6.83007 11.597 6.994 11.5111L6.98801 11.5141L6.93103 10.8034C6.83807 10.1756 6.78409 9.44995 6.78409 8.71227C6.78409 7.30687 6.97801 5.94545 7.33885 4.656L7.31387 4.76196C8.55034 1.94816 11.3132 0.0179923 14.5268 0.0179923C14.5708 0.0179923 14.6147 0.0179922 14.6577 0.0189918H14.6507L15.1745 0H15.2495L15.2435 0.00299874Z" fill="#727072"/>
</g>
</svg>
