<svg width="28" height="28" viewBox="0 0 28 28" fill="none" xmlns="http://www.w3.org/2000/svg">
<g id="social-icon">
<path id="Vector" d="M15.0562 12.6292V12.5859C15.0471 12.6005 15.0375 12.6151 15.0278 12.6292H15.0562Z" fill="#727072"/>
<path id="Vector_2" d="M25.93 0H2.06835C0.926252 0 0 0.898468 0 2.00579V25.9948C0 27.1015 0.926252 28 2.06835 28H25.93C27.0737 28 28 27.101 28 25.9948V2.00579C28 0.897905 27.0732 0 25.93 0ZM8.48696 23.4395H4.25793V10.7963H8.48696V23.4395ZM6.37273 9.06912H6.3444C4.92585 9.06912 4.00809 8.09803 4.00809 6.88488C4.00809 5.6447 4.95417 4.70063 6.40049 4.70063C7.84736 4.70063 8.73736 5.6447 8.76568 6.88488C8.76568 8.09803 7.8468 9.06912 6.37273 9.06912ZM23.737 23.4395H19.5079V16.674C19.5079 14.975 18.8961 13.8154 17.3659 13.8154C16.1978 13.8154 15.5021 14.5973 15.1956 15.3528C15.084 15.6224 15.0568 15.9996 15.0568 16.3779V23.439H10.8278C10.8278 23.439 10.8833 11.9807 10.8278 10.7957H15.0568V12.5853C15.6188 11.724 16.6238 10.4973 18.8689 10.4973C21.6511 10.4973 23.7375 12.305 23.7375 16.1888L23.737 23.4395Z" fill="#727072"/>
</g>
</svg>
