<svg width="46" height="52" viewBox="0 0 46 52" fill="none" xmlns="http://www.w3.org/2000/svg">
<g id="SVGRepo_iconCarrier">
<g id="Clip path group">
<mask id="mask0_477_248" style="mask-type:luminance" maskUnits="userSpaceOnUse" x="0" y="0" width="46" height="52">
<g id="a">
<path id="Vector" d="M21.7691 0.382145L1.4297 12.1218C1.05604 12.3372 0.745693 12.6471 0.529914 13.0206C0.314135 13.394 0.200541 13.8176 0.200562 14.2489V37.7447C0.200562 38.6219 0.667884 39.4325 1.4297 39.8718L21.7705 51.6206C22.1442 51.8358 22.5679 51.9491 22.9992 51.9491C23.4304 51.9491 23.8541 51.8358 24.2278 51.6206L44.5653 39.8718C44.938 39.6557 45.2475 39.3454 45.4627 38.9721C45.6779 38.5988 45.7913 38.1756 45.7915 37.7447V14.2489C45.7915 13.3722 45.3232 12.5611 44.5604 12.1218L24.2259 0.382145C23.8513 0.167126 23.4268 0.0539856 22.9948 0.0539856C22.5629 0.0539856 22.1384 0.167126 21.7638 0.382145" fill="white"/>
</g>
</mask>
<g mask="url(#mask0_477_248)">
<g id="Group">
<path id="Vector_2" d="M66.3452 10.1284L9.03245 -17.9643L-20.3541 41.984L36.9572 70.0781L66.3452 10.1284Z" fill="url(#paint0_linear_477_248)"/>
</g>
</g>
</g>
<g id="Clip path group_2">
<mask id="mask1_477_248" style="mask-type:luminance" maskUnits="userSpaceOnUse" x="0" y="0" width="46" height="52">
<g id="c">
<path id="Vector_3" d="M0.70459 39.2365C0.899149 39.4889 1.14247 39.7076 1.42875 39.8718L18.8763 49.9497L21.7826 51.6201C22.2171 51.8712 22.7124 51.9774 23.1991 51.9412C23.3613 51.9282 23.5235 51.8977 23.6818 51.8528L45.1335 12.5742C44.9694 12.3955 44.7772 12.2459 44.5619 12.1204L31.244 4.42974L24.2042 0.379253C24.0042 0.265811 23.7899 0.179751 23.5669 0.123383L0.70459 39.2365Z" fill="white"/>
</g>
</mask>
<g mask="url(#mask1_477_248)">
<g id="Group_2">
<path id="Vector_4" d="M-24.0753 18.4375L16.3934 73.2099L69.9139 33.6676L29.4428 -21.1033L-24.0753 18.4375Z" fill="url(#paint1_linear_477_248)"/>
</g>
</g>
</g>
<g id="Clip path group_3">
<mask id="mask2_477_248" style="mask-type:luminance" maskUnits="userSpaceOnUse" x="1" y="0" width="45" height="52">
<g id="e">
<path id="Vector_5" d="M22.752 0.0673684C22.4061 0.102308 22.0714 0.209545 21.7696 0.382135L1.48816 12.088L23.3579 51.9219C23.6621 51.8784 23.9614 51.777 24.2317 51.6206L44.5711 39.8718C44.8782 39.694 45.1433 39.4521 45.3482 39.1624C45.5532 38.8728 45.6932 38.5424 45.7587 38.1936L23.4641 0.107435C23.3004 0.0748057 23.1338 0.0583174 22.9669 0.058197L22.7641 0.0678472" fill="white"/>
</g>
</mask>
<g mask="url(#mask2_477_248)">
<g id="Group_3">
<path id="Vector_6" d="M1.48767 0.058197V51.9228H45.75V0.058197H1.48767Z" fill="url(#paint2_linear_477_248)"/>
</g>
</g>
</g>
</g>
<defs>
<linearGradient id="paint0_linear_477_248" x1="37.6717" y1="-3.96234" x2="8.28704" y2="55.982" gradientUnits="userSpaceOnUse">
<stop offset="0.3" stop-color="#3E863D"/>
<stop offset="0.5" stop-color="#55934F"/>
<stop offset="0.8" stop-color="#5AAD45"/>
</linearGradient>
<linearGradient id="paint1_linear_477_248" x1="-3.59885" y1="46.1377" x2="49.9241" y2="6.59064" gradientUnits="userSpaceOnUse">
<stop offset="0.57" stop-color="#3E863D"/>
<stop offset="0.72" stop-color="#619857"/>
<stop offset="1" stop-color="#76AC64"/>
</linearGradient>
<linearGradient id="paint2_linear_477_248" x1="1.50264" y1="25.992" x2="45.7582" y2="25.992" gradientUnits="userSpaceOnUse">
<stop offset="0.16" stop-color="#6BBF47"/>
<stop offset="0.38" stop-color="#79B461"/>
<stop offset="0.47" stop-color="#75AC64"/>
<stop offset="0.7" stop-color="#659E5A"/>
<stop offset="0.9" stop-color="#3E863D"/>
</linearGradient>
</defs>
</svg>
