<svg width="56" height="50" viewBox="0 0 56 50" fill="none" xmlns="http://www.w3.org/2000/svg">
<g id="SVGRepo_iconCarrier">
<g id="Group">
<path id="Vector" d="M46.0432 16.2114C45.4623 16.0115 44.8603 15.8223 44.2405 15.6433C44.3424 15.2276 44.4359 14.8172 44.519 14.4138C45.8837 7.78982 44.9914 2.45349 41.9447 0.696545C39.0233 -0.988134 34.2456 0.768414 29.4203 4.9677C28.9563 5.3715 28.491 5.79903 28.0259 6.24708C27.716 5.95064 27.4066 5.66416 27.098 5.39014C22.041 0.899991 16.9721 -0.992221 13.9284 0.76981C11.0098 2.45937 10.1455 7.47603 11.3738 13.7536C11.4924 14.36 11.6311 14.9792 11.7879 15.6088C11.0705 15.8124 10.3779 16.0295 9.71524 16.2605C3.78642 18.3275 0 21.5671 0 24.9274C0 28.3979 4.06472 31.8789 10.24 33.9896C10.7274 34.1562 11.2331 34.3137 11.7542 34.4632C11.585 35.1441 11.4379 35.8114 11.3144 36.4622C10.1432 42.6308 11.0578 47.5289 13.9687 49.2078C16.9753 50.9417 22.0212 49.1595 26.9347 44.8645C27.3231 44.525 27.7128 44.165 28.1033 43.7876C28.6093 44.2749 29.1146 44.7361 29.6172 45.1687C34.3765 49.2643 39.0771 50.918 41.9852 49.2345C44.9888 47.4957 45.965 42.2339 44.6977 35.8321C44.6009 35.3432 44.4882 34.8437 44.3617 34.3353C44.7161 34.2305 45.064 34.1224 45.4032 34.0099C51.823 31.8829 56 28.4443 56 24.9274C56 21.5549 52.0915 18.2935 46.0432 16.2114ZM44.6508 31.7392C44.3446 31.8405 44.0304 31.9385 43.7102 32.0335C43.0015 29.7898 42.045 27.404 40.8745 24.939C41.9915 22.5328 42.911 20.1775 43.5999 17.9483C44.1728 18.1141 44.7288 18.2889 45.2645 18.4734C50.4467 20.2574 53.6077 22.895 53.6077 24.9274C53.6077 27.0922 50.1939 29.9025 44.6508 31.7392ZM42.3508 36.2967C42.9112 39.1275 42.9913 41.6868 42.6201 43.6876C42.2865 45.4854 41.6158 46.6841 40.7865 47.1641C39.0216 48.1856 35.2476 46.8578 31.1774 43.3553C30.7108 42.9538 30.2408 42.525 29.7693 42.0713C31.3472 40.3456 32.9243 38.3393 34.4634 36.1112C37.1706 35.871 39.7283 35.4782 42.0477 34.942C42.1619 35.4029 42.2634 35.8548 42.3508 36.2967ZM19.0917 46.9876C17.3674 47.5965 15.9941 47.614 15.164 47.1353C13.3976 46.1165 12.6633 42.1837 13.6649 36.9083C13.7797 36.3042 13.9162 35.6836 14.0736 35.0492C16.3676 35.5565 18.9066 35.9215 21.6202 36.1415C23.1697 38.3218 24.7923 40.3258 26.4275 42.0806C26.0702 42.4255 25.7144 42.7538 25.3605 43.0632C23.1878 44.9624 21.0105 46.3099 19.0917 46.9876ZM11.0138 31.7259C8.28315 30.7926 6.0281 29.5796 4.48238 28.256C3.09345 27.0665 2.3922 25.8856 2.3922 24.9274C2.3922 22.8882 5.43232 20.2873 10.5027 18.5195C11.1179 18.305 11.762 18.1028 12.4303 17.9129C13.131 20.1924 14.0503 22.5756 15.1596 24.9856C14.0359 27.4313 13.1036 29.8525 12.396 32.1587C11.9195 32.0217 11.4579 31.8776 11.0138 31.7259ZM13.7215 13.2942C12.6691 7.91572 13.3681 3.85837 15.1269 2.84025C17.0004 1.75564 21.1432 3.30206 25.5095 7.17909C25.7886 7.42689 26.0688 7.68625 26.3498 7.95459C24.7227 9.70167 23.115 11.6907 21.5793 13.8581C18.9455 14.1022 16.4244 14.4943 14.1065 15.0195C13.9608 14.4332 13.8317 13.8573 13.7215 13.2942ZM37.8774 19.2589C37.3233 18.3018 36.7544 17.3673 36.1745 16.4583C37.9612 16.6842 39.6731 16.984 41.2808 17.351C40.7981 18.8978 40.1966 20.5151 39.4884 22.173C38.9805 21.2086 38.4432 20.2363 37.8774 19.2589ZM28.0267 9.66429C29.1302 10.8597 30.2352 12.1944 31.3221 13.6426C30.2268 13.5909 29.118 13.5639 28 13.5639C26.8926 13.5639 25.7919 13.5903 24.7034 13.6411C25.7914 12.2064 26.906 10.8735 28.0267 9.66429ZM18.1129 19.2755C17.5594 20.2353 17.0321 21.2024 16.5321 22.1712C15.8354 20.5191 15.2395 18.8944 14.7526 17.3256C16.3504 16.9681 18.0542 16.6757 19.8296 16.4541C19.2415 17.3715 18.6679 18.3131 18.1129 19.2755ZM19.8807 33.5713C18.0464 33.3666 16.317 33.0893 14.7196 32.7416C15.2142 31.1449 15.8234 29.4855 16.5348 27.7977C17.0361 28.7659 17.5655 29.7334 18.1224 30.6953C18.6897 31.6753 19.2775 32.6352 19.8807 33.5713ZM28.0929 40.3591C26.9591 39.1358 25.8281 37.7825 24.7235 36.3269C25.7958 36.369 26.889 36.3905 28 36.3905C29.1414 36.3905 30.2698 36.3648 31.3804 36.3153C30.2899 37.7972 29.1889 39.1525 28.0929 40.3591ZM39.5113 27.7117C40.2597 29.4177 40.8907 31.0684 41.3917 32.638C39.768 33.0084 38.015 33.3067 36.1679 33.5284C36.7492 32.6072 37.3231 31.6566 37.887 30.6789C38.4574 29.6896 38.9991 28.6989 39.5113 27.7117ZM35.8148 29.4837C34.9394 31.0015 34.0407 32.4505 33.1283 33.8182C31.4665 33.937 29.7498 33.9982 28 33.9982C26.2573 33.9982 24.5622 33.9441 22.9298 33.8381C21.9807 32.4525 21.0624 30.9992 20.1926 29.4968C19.3251 27.9984 18.5269 26.4874 17.8034 24.9848C18.5267 23.4787 19.323 21.966 20.1855 20.4703L20.1853 20.4706C21.0502 18.9709 21.9603 17.5248 22.9007 16.1478C24.5662 16.0219 26.274 15.9562 27.9999 15.9562C29.7336 15.9562 31.4437 16.0224 33.1087 16.1494C34.0347 17.5163 34.9387 18.9578 35.8069 20.4577C36.685 21.9744 37.4916 23.477 38.221 24.9508C37.4938 26.4499 36.6889 27.9677 35.8148 29.4837ZM40.7498 2.76908C42.625 3.8505 43.3543 8.21186 42.1761 13.931C42.1009 14.2959 42.0163 14.6676 41.9244 15.0443C39.6011 14.5082 37.0782 14.1093 34.4368 13.8615C32.898 11.6702 31.3035 9.67814 29.7029 7.95349C30.1332 7.53953 30.563 7.1448 30.9909 6.77229C35.1252 3.17437 38.9892 1.75384 40.7498 2.76908ZM28 19.9268C30.7617 19.9268 33.0006 22.1656 33.0006 24.9274C33.0006 27.6891 30.7617 29.928 28 29.928C25.2383 29.928 22.9994 27.6891 22.9994 24.9274C22.9994 22.1656 25.2383 19.9268 28 19.9268Z" fill="#00D8FF"/>
</g>
</g>
</svg>
