<svg width="56" height="56" viewBox="0 0 56 56" fill="none" xmlns="http://www.w3.org/2000/svg">
<g id="SVGRepo_iconCarrier">
<path id="Vector" d="M0 28V0H56V56H0" fill="#007ACC"/>
<path id="Vector_2" d="M12.278 28.098V30.38H19.558V51.1H24.724V30.38H32.004V28.14C32.004 26.88 32.004 25.858 31.948 25.83C31.948 25.788 27.51 25.774 22.12 25.774L12.32 25.816V28.112L12.278 28.098ZM44.996 25.76C46.424 26.096 47.516 26.74 48.496 27.762C49.014 28.322 49.784 29.302 49.84 29.554C49.84 29.638 47.418 31.276 45.948 32.186C45.892 32.228 45.668 31.99 45.444 31.626C44.716 30.59 43.974 30.142 42.812 30.058C41.132 29.946 40.012 30.828 40.012 32.298C40.012 32.746 40.096 32.998 40.264 33.362C40.642 34.132 41.342 34.594 43.512 35.546C47.516 37.268 49.252 38.402 50.302 40.026C51.492 41.846 51.758 44.702 50.96 46.844C50.064 49.182 47.88 50.764 44.758 51.282C43.778 51.45 41.538 51.422 40.488 51.24C38.248 50.82 36.106 49.7 34.79 48.258C34.272 47.698 33.278 46.2 33.334 46.102L33.866 45.766L35.966 44.548L37.548 43.624L37.912 44.114C38.374 44.842 39.41 45.822 40.012 46.158C41.832 47.096 44.268 46.97 45.472 45.878C45.99 45.402 46.214 44.898 46.214 44.198C46.214 43.554 46.116 43.26 45.794 42.77C45.346 42.154 44.45 41.65 41.93 40.53C39.032 39.298 37.8 38.514 36.652 37.31C35.994 36.582 35.392 35.448 35.112 34.51C34.902 33.698 34.832 31.71 35.028 30.912C35.63 28.112 37.744 26.152 40.768 25.592C41.748 25.396 44.058 25.48 45.024 25.732L44.996 25.76Z" fill="white"/>
</g>
</svg>
