<svg width="56" height="56" viewBox="0 0 56 56" fill="none" xmlns="http://www.w3.org/2000/svg">
<g id="Frame">
<g id="SVGRepo_iconCarrier">
<path id="Vector" fill-rule="evenodd" clip-rule="evenodd" d="M22.7787 3.5C18.9338 3.5 15.8169 6.51793 15.8169 10.2407V14.9074H27.8661V16.2037H10.4617C6.61687 16.2037 3.5 19.2217 3.5 22.9444V33.0556C3.5 36.7784 6.61687 39.7962 10.4617 39.7962H14.4781V34.0926C14.4781 30.3699 17.595 27.3518 21.4399 27.3518H34.2923C37.5457 27.3518 40.183 24.7982 40.183 21.6482V10.2407C40.183 6.51793 37.0662 3.5 33.2213 3.5H22.7787ZM21.1722 11.7963C22.5031 11.7963 23.5819 10.7516 23.5819 9.46297C23.5819 8.1743 22.5031 7.12962 21.1722 7.12962C19.8411 7.12962 18.7623 8.1743 18.7623 9.46297C18.7623 10.7516 19.8411 11.7963 21.1722 11.7963Z" fill="url(#paint0_linear_477_455)"/>
<path id="Vector_2" fill-rule="evenodd" clip-rule="evenodd" d="M33.2209 52.5C37.0659 52.5 40.1828 49.4821 40.1828 45.7593V41.0926H28.1335V39.7964H45.538C49.3829 39.7964 52.4996 36.7783 52.4996 33.0556V22.9444C52.4996 19.2216 49.3829 16.2037 45.538 16.2037H41.5215V21.9074C41.5215 25.6303 38.4046 28.6482 34.5599 28.6482H21.7073C18.4539 28.6482 15.8167 31.2018 15.8167 34.3518V45.7593C15.8167 49.4821 18.9336 52.5 22.7783 52.5H33.2209ZM34.8276 44.2038C33.4966 44.2038 32.4177 45.2483 32.4177 46.537C32.4177 47.8257 33.4966 48.8703 34.8276 48.8703C36.1585 48.8703 37.2374 47.8257 37.2374 46.537C37.2374 45.2483 36.1585 44.2038 34.8276 44.2038Z" fill="url(#paint1_linear_477_455)"/>
</g>
</g>
<defs>
<linearGradient id="paint0_linear_477_455" x1="21.8416" y1="3.5" x2="21.8416" y2="39.7962" gradientUnits="userSpaceOnUse">
<stop stop-color="#327EBD"/>
<stop offset="1" stop-color="#1565A7"/>
</linearGradient>
<linearGradient id="paint1_linear_477_455" x1="34.1582" y1="16.2037" x2="34.1582" y2="52.5" gradientUnits="userSpaceOnUse">
<stop stop-color="#FFDA4B"/>
<stop offset="1" stop-color="#F9C600"/>
</linearGradient>
</defs>
</svg>
