<svg width="37" height="56" viewBox="0 0 37 56" fill="none" xmlns="http://www.w3.org/2000/svg">
<g id="SVGRepo_iconCarrier">
<path id="Vector" d="M18.28 28.14C18.28 22.984 22.356 18.808 27.38 18.808C32.408 18.808 36.48 22.98 36.48 28.14C36.48 33.296 32.408 37.472 27.38 37.472C22.36 37.472 18.28 33.3 18.28 28.14Z" fill="#1ABCFE"/>
<path id="Vector_2" d="M0.0800781 46.808C0.0800781 41.652 4.15608 37.472 9.18008 37.472H18.2801V46.808C18.2801 51.96 14.2041 56.14 9.18008 56.14C4.15608 56.14 0.0800781 51.96 0.0800781 46.808Z" fill="#0ACF83"/>
<path id="Vector_3" d="M18.28 0.140015V18.808H27.38C32.408 18.808 36.48 14.628 36.48 9.47201C36.48 4.32001 32.408 0.140015 27.38 0.140015H18.28Z" fill="#FF7262"/>
<path id="Vector_4" d="M0.0800781 9.47201C0.0800781 14.628 4.15608 18.808 9.18008 18.808H18.2801V0.140015H9.18008C4.15608 0.140015 0.0800781 4.32001 0.0800781 9.47201Z" fill="#F24E1E"/>
<path id="Vector_5" d="M0.0800781 28.14C0.0800781 33.296 4.15608 37.472 9.18008 37.472H18.2801V18.808H9.18008C4.15608 18.808 0.0800781 22.98 0.0800781 28.14Z" fill="#A259FF"/>
</g>
</svg>
