<svg width="56" height="56" viewBox="0 0 56 56" fill="none" xmlns="http://www.w3.org/2000/svg">
<g id="SVGRepo_iconCarrier">
<path id="Vector" d="M1.31074 30.9664C-0.250226 29.4054 -0.250226 26.8746 1.31074 25.3136L25.3136 1.31074C26.8746 -0.250226 29.4054 -0.250226 30.9664 1.31074L54.9693 25.3136C56.5303 26.8746 56.5303 29.4054 54.9693 30.9664L30.9664 54.9693C29.4054 56.5303 26.8746 56.5303 25.3136 54.9693L1.31074 30.9664Z" fill="#EE513B"/>
<path id="Vector_2" d="M20.4378 6.26306L18.0072 8.69374L24.285 14.9716C24.031 15.5164 23.8892 16.124 23.8892 16.7648C23.8892 18.584 25.0322 20.1362 26.6392 20.7424V36.0996C25.0322 36.7058 23.8892 38.258 23.8892 40.0772C23.8892 42.4245 25.792 44.3273 28.1392 44.3273C30.4864 44.3273 32.3892 42.4245 32.3892 40.0772C32.3892 38.428 31.4498 36.998 30.0768 36.2936V20.7634L36.0778 26.7644C35.8362 27.2982 35.7018 27.8908 35.7018 28.5148C35.7018 30.862 37.6046 32.7648 39.9518 32.7648C42.299 32.7648 44.2018 30.862 44.2018 28.5148C44.2018 26.1676 42.299 24.2648 39.9518 24.2648C39.4956 24.2648 39.0564 24.3366 38.6444 24.4696L32.1994 18.0246C32.3228 17.6266 32.3892 17.2034 32.3892 16.7648C32.3892 14.4176 30.4864 12.5148 28.1392 12.5148C27.7006 12.5148 27.2776 12.5812 26.8794 12.7046L20.4378 6.26306Z" fill="white"/>
</g>
</svg>
