<svg width="27" height="28" viewBox="0 0 27 28" fill="none" xmlns="http://www.w3.org/2000/svg">
<g id="social-icon">
<path id="Vector" fill-rule="evenodd" clip-rule="evenodd" d="M12.7962 0.220067C13.2188 -0.0733557 13.7812 -0.0733557 14.2038 0.220067L26.4766 8.7418C26.8046 8.96961 27 9.34187 27 9.73912V18.2608C27 18.6581 26.8046 19.0304 26.4766 19.2581L14.2038 27.7799C13.7812 28.0734 13.2188 28.0734 12.7962 27.7799L0.523481 19.2581C0.195394 19.0304 0 18.6581 0 18.2608V9.73912C0 9.34187 0.195394 8.96961 0.523481 8.7418L12.7962 0.220067ZM2.45455 12.0774V15.9226L5.22353 14L2.45455 12.0774ZM7.36364 15.4861L3.36738 18.2608L12.2727 24.4443V18.8947L7.36364 15.4861ZM14.7273 18.8947V24.4443L23.6326 18.2608L19.6364 15.4861L14.7273 18.8947ZM21.7765 14L24.5455 15.9226V12.0774L21.7765 14ZM23.6326 9.73912L19.6364 12.5139L14.7273 9.10527V3.55558L23.6326 9.73912ZM12.2727 3.55558V9.10527L7.36364 12.5139L3.36738 9.73912L12.2727 3.55558ZM13.5 11.2252L9.50374 14L13.5 16.7748L17.4962 14L13.5 11.2252Z" fill="#727072"/>
</g>
</svg>
